<svg width="24" height="25" viewBox="0 0 24 25" fill="none" xmlns="http://www.w3.org/2000/svg">
<g clip-path="url(#clip0_484_643)">
<mask id="mask0_484_643" style="mask-type:luminance" maskUnits="userSpaceOnUse" x="0" y="0" width="24" height="25">
<path d="M24 0.5H0V24.5H24V0.5Z" fill="white"/>
</mask>
<g mask="url(#mask0_484_643)">
<path d="M24 0.5H21V3.5H24V0.5Z" fill="white"/>
<path d="M21 3.5H18V6.5H21V3.5Z" fill="white"/>
<path d="M18 6.5H15V9.5H18V6.5Z" fill="white"/>
<path d="M15 9.5H12V12.5H15V9.5Z" fill="white"/>
<path d="M12 12.5H9V15.5H12V12.5Z" fill="white"/>
<path d="M12 9.5H9V12.5H12V9.5Z" fill="white"/>
<path d="M9 6.5H6V9.5H9V6.5Z" fill="white"/>
<path d="M6 3.5H3V6.5H6V3.5Z" fill="white"/>
<path d="M3 0.5H0V3.5H3V0.5Z" fill="white"/>
<path d="M15 12.5H12V15.5H15V12.5Z" fill="white"/>
<path d="M18 15.5H15V18.5H18V15.5Z" fill="white"/>
<path d="M21 18.5H18V21.5H21V18.5Z" fill="white"/>
<path d="M24 21.5H21V24.5H24V21.5Z" fill="white"/>
<path d="M9 15.5H6V18.5H9V15.5Z" fill="white"/>
<path d="M6 18.5H3V21.5H6V18.5Z" fill="white"/>
<path d="M3 21.5H0V24.5H3V21.5Z" fill="white"/>
</g>
</g>
<defs>
<clipPath id="clip0_484_643">
<rect width="24" height="24" fill="white" transform="translate(0 0.5)"/>
</clipPath>
</defs>
</svg>
