<svg width="24" height="25" viewBox="0 0 24 25" fill="none" xmlns="http://www.w3.org/2000/svg">
<g clip-path="url(#clip0_508_1497)">
<mask id="mask0_508_1497" style="mask-type:luminance" maskUnits="userSpaceOnUse" x="0" y="0" width="24" height="25">
<path d="M0 24.5L0 0.5L24 0.5L24 24.5L0 24.5Z" fill="white"/>
</mask>
<g mask="url(#mask0_508_1497)">
<path d="M3 9.5L3 6.5L6 6.5V9.5H3Z" fill="white"/>
<path d="M6 12.5L6 9.5H9V12.5H6Z" fill="white"/>
<path d="M6 15.5L6 12.5H9V15.5H6Z" fill="white"/>
<path d="M21 12.5V9.5H24V12.5H21Z" fill="white"/>
<path d="M18 12.5V9.5H21V12.5H18Z" fill="white"/>
<path d="M18 15.5V12.5H21V15.5H18Z" fill="white"/>
<path d="M15 15.5V12.5H18V15.5H15Z" fill="white"/>
<path d="M21 9.5V6.5L24 6.5V9.5H21Z" fill="white"/>
<path d="M9 18.5V15.5H12V18.5H9Z" fill="white"/>
<path d="M12 21.5V18.5H15V21.5H12Z" fill="white"/>
<path d="M12 18.5V15.5H15V18.5H12Z" fill="white"/>
<path d="M15 18.5V15.5H18V18.5H15Z" fill="white"/>
<path d="M9 15.5V12.5H12V15.5H9Z" fill="white"/>
<path d="M3 12.5L3 9.5H6V12.5H3Z" fill="white"/>
</g>
</g>
<defs>
<clipPath id="clip0_508_1497">
<rect width="24" height="24" fill="white" transform="matrix(0 1 -1 0 24 0.5)"/>
</clipPath>
</defs>
</svg>
