<svg width="24" height="25" viewBox="0 0 24 25" fill="none" xmlns="http://www.w3.org/2000/svg">
<g clip-path="url(#clip0_508_1521)">
<mask id="mask0_508_1521" style="mask-type:luminance" maskUnits="userSpaceOnUse" x="0" y="0" width="24" height="25">
<path d="M24 24.5L0 24.5L0 0.5L24 0.5L24 24.5Z" fill="white"/>
</mask>
<g mask="url(#mask0_508_1521)">
<path d="M9 21.5H6V18.5H9V21.5Z" fill="white"/>
<path d="M12 18.5H9V15.5H12V18.5Z" fill="white"/>
<path d="M15 18.5H12V15.5H15V18.5Z" fill="white"/>
<path d="M12 3.5L9 3.5V0.5L12 0.5V3.5Z" fill="white"/>
<path d="M12 6.5H9V3.5L12 3.5V6.5Z" fill="white"/>
<path d="M15 6.5H12V3.5L15 3.5V6.5Z" fill="white"/>
<path d="M15 9.5H12V6.5H15V9.5Z" fill="white"/>
<path d="M9 3.5L6 3.5V0.5L9 0.5V3.5Z" fill="white"/>
<path d="M18 15.5H15V12.5H18V15.5Z" fill="white"/>
<path d="M21 12.5H18V9.5H21V12.5Z" fill="white"/>
<path d="M18 12.5H15V9.5H18V12.5Z" fill="white"/>
<path d="M18 9.5H15V6.5H18V9.5Z" fill="white"/>
<path d="M15 15.5H12V12.5H15V15.5Z" fill="white"/>
<path d="M12 21.5H9V18.5H12V21.5Z" fill="white"/>
</g>
</g>
<defs>
<clipPath id="clip0_508_1521">
<rect width="24" height="24" fill="white" transform="translate(0 0.5)"/>
</clipPath>
</defs>
</svg>
