<svg width="24" height="25" viewBox="0 0 24 25" fill="none" xmlns="http://www.w3.org/2000/svg">
<g clip-path="url(#clip0_484_735)">
<mask id="mask0_484_735" style="mask-type:luminance" maskUnits="userSpaceOnUse" x="0" y="0" width="24" height="25">
<path d="M24 0.5H0V24.5H24V0.5Z" fill="white"/>
</mask>
<g mask="url(#mask0_484_735)">
<mask id="mask1_484_735" style="mask-type:luminance" maskUnits="userSpaceOnUse" x="0" y="0" width="24" height="25">
<path d="M24 0.5H0V24.5H24V0.5Z" fill="white"/>
</mask>
<g mask="url(#mask1_484_735)">
<path d="M18 0.5H6V3.5H18V0.5Z" fill="#CE5050"/>
<path d="M3 6.5H0V9.5H3V6.5Z" fill="#CE5050"/>
<path d="M24 6.5H21V9.5H24V6.5Z" fill="#CE5050"/>
<path d="M24 3.5H0V6.5H24V3.5Z" fill="#CE5050"/>
<path d="M21 12.5H18V21.5H21V12.5Z" fill="#CE5050"/>
<path d="M6 12.5H3V21.5H6V12.5Z" fill="#CE5050"/>
<path d="M21 21.5H3V24.5H21V21.5Z" fill="#CE5050"/>
<path d="M24 9.5H21V12.5H24V9.5Z" fill="#CE5050"/>
<path d="M21 6.5H18V9.5H21V6.5Z" fill="#CE5050"/>
</g>
</g>
</g>
<defs>
<clipPath id="clip0_484_735">
<rect width="24" height="24" fill="white" transform="translate(0 0.5)"/>
</clipPath>
</defs>
</svg>
